<?xml version="1.0" encoding="UTF-8"?>
<svg width="56px" height="56px" viewBox="0 0 56 56" version="1.1" xmlns="http://www.w3.org/2000/svg" xmlns:xlink="http://www.w3.org/1999/xlink">
    <title>Icon/56x56/Draft</title>
    <g id="Icon/56x56/Draft" stroke="none" stroke-width="1" fill="none" fill-rule="evenodd">
        <g id="Group-5">
            <g id="Group">
                <rect id="Rectangle" x="0" y="0" width="56" height="56"></rect>
            </g>
            <g id="Group" transform="translate(12.000000, 11.000000)" stroke="#221E1F">
                <rect id="Rectangle" stroke-width="2" fill="#FFFFFF" transform="translate(16.640520, 17.000000) rotate(-45.000000) translate(-16.640520, -17.000000) " x="12.6405201" y="0" width="8" height="34"></rect>
                <polyline id="Line-4" stroke-opacity="0.173705201" stroke-width="2" stroke-linecap="round" points="29.9374625 9.03553391 9.95885571 29.0141407 4 31.2471365"></polyline>
                <line x1="10.58404" y1="5.27785846" x2="6.89819554" y2="5.27785846" id="Line" stroke-linecap="square" transform="translate(8.898196, 5.277858) rotate(-45.000000) translate(-8.898196, -5.277858) "></line>
                <line x1="29.6759231" y1="24.3697416" x2="25.9900786" y2="24.3697416" id="Line-Copy-9" stroke-linecap="square" transform="translate(27.990079, 24.369742) rotate(-45.000000) translate(-27.990079, -24.369742) "></line>
                <line x1="13.0589137" y1="7.7527322" x2="9.37306927" y2="7.7527322" id="Line-Copy" stroke-linecap="square" transform="translate(11.373069, 7.752732) rotate(-45.000000) translate(-11.373069, -7.752732) "></line>
                <line x1="24.7261756" y1="19.4199941" x2="21.0403312" y2="19.4199941" id="Line-Copy-7" stroke-linecap="square" transform="translate(23.040331, 19.419994) rotate(-45.000000) translate(-23.040331, -19.419994) "></line>
                <line x1="15.680234" y1="10.5811593" x2="10.9943896" y2="10.5811593" id="Line-Copy-2" stroke-linecap="square" transform="translate(13.494390, 10.581159) rotate(-45.000000) translate(-13.494390, -10.581159) "></line>
                <line x1="27.3474959" y1="22.2484212" x2="22.6616515" y2="22.2484212" id="Line-Copy-8" stroke-linecap="square" transform="translate(25.161652, 22.248421) rotate(-45.000000) translate(-25.161652, -22.248421) "></line>
                <path d="M13.6392143,-0.416122182 L17.6392143,-0.416122182 C18.1914991,-0.416122182 18.6392143,0.0315930682 18.6392143,0.583877818 L18.6392143,29.2798329 L18.6392143,29.2798329 L15.6483112,35.8314106 C15.6460176,35.8364347 15.6400855,35.8386482 15.6350614,35.8363546 C15.6328722,35.8353552 15.6311168,35.8335999 15.6301174,35.8314106 L12.6392143,29.2798329 L12.6392143,29.2798329 L12.6392143,0.583877818 C12.6392143,0.0315930682 13.0869296,-0.416122182 13.6392143,-0.416122182 Z" id="Path-2" stroke-width="2" fill="#FFFFFF" transform="translate(15.639214, 17.717608) rotate(-315.000000) translate(-15.639214, -17.717608) "></path>
                <line x1="27.887877" y1="8.60827412" x2="21.9123246" y2="8.60827412" id="Line-2" stroke-width="2" stroke-linecap="square" transform="translate(25.224247, 8.608274) rotate(-315.000000) translate(-25.224247, -8.608274) "></line>
            </g>
        </g>
    </g>
</svg>